<svg width="26" height="28" viewBox="0 0 26 28" fill="none" xmlns="http://www.w3.org/2000/svg">
<rect width="25.3333" height="27.8333" rx="8" fill="#197FE6" fill-opacity="0.1"/>
<path d="M7.66667 15.1667C7.66667 15.8889 7.8125 16.5729 8.10417 17.2188C8.39583 17.8646 8.8125 18.4306 9.35417 18.9167C9.34028 18.8472 9.33333 18.7847 9.33333 18.7292C9.33333 18.6736 9.33333 18.6111 9.33333 18.5417C9.33333 18.0972 9.41667 17.6806 9.58333 17.2917C9.75 16.9028 9.99306 16.5486 10.3125 16.2292L12.6667 13.9167L15.0208 16.2292C15.3403 16.5486 15.5833 16.9028 15.75 17.2917C15.9167 17.6806 16 18.0972 16 18.5417C16 18.6111 16 18.6736 16 18.7292C16 18.7847 15.9931 18.8472 15.9792 18.9167C16.5208 18.4306 16.9375 17.8646 17.2292 17.2188C17.5208 16.5729 17.6667 15.8889 17.6667 15.1667C17.6667 14.4722 17.5382 13.816 17.2812 13.1979C17.0243 12.5799 16.6528 12.0278 16.1667 11.5417C15.8889 11.7222 15.5972 11.8576 15.2917 11.9479C14.9861 12.0382 14.6736 12.0833 14.3542 12.0833C13.4931 12.0833 12.7465 11.7986 12.1146 11.2292C11.4826 10.6597 11.1181 9.95833 11.0208 9.125C10.4792 9.58333 10 10.059 9.58333 10.5521C9.16667 11.0451 8.81597 11.5451 8.53125 12.0521C8.24653 12.559 8.03125 13.0764 7.88542 13.6042C7.73958 14.1319 7.66667 14.6528 7.66667 15.1667ZM12.6667 16.25L11.4792 17.4167C11.3264 17.5694 11.2083 17.7431 11.125 17.9375C11.0417 18.1319 11 18.3333 11 18.5417C11 18.9861 11.1632 19.3681 11.4896 19.6875C11.816 20.0069 12.2083 20.1667 12.6667 20.1667C13.125 20.1667 13.5174 20.0069 13.8438 19.6875C14.1701 19.3681 14.3333 18.9861 14.3333 18.5417C14.3333 18.3194 14.2917 18.1146 14.2083 17.9271C14.125 17.7396 14.0069 17.5694 13.8542 17.4167L12.6667 16.25ZM12.6667 6V8.75C12.6667 9.22222 12.8299 9.61806 13.1562 9.9375C13.4826 10.2569 13.8819 10.4167 14.3542 10.4167C14.6042 10.4167 14.8368 10.3646 15.0521 10.2604C15.2674 10.1562 15.4583 10 15.625 9.79167L16 9.33333C17.0278 9.91667 17.8403 10.7292 18.4375 11.7708C19.0347 12.8125 19.3333 13.9444 19.3333 15.1667C19.3333 17.0278 18.6875 18.6042 17.3958 19.8958C16.1042 21.1875 14.5278 21.8333 12.6667 21.8333C10.8056 21.8333 9.22917 21.1875 7.9375 19.8958C6.64583 18.6042 6 17.0278 6 15.1667C6 13.375 6.60069 11.6736 7.80208 10.0625C9.00347 8.45139 10.625 7.09722 12.6667 6Z" fill="#197FE6" stroke="black" stroke-linejoin="bevel"/>
</svg>
