<svg width="32" height="32" viewBox="0 0 32 32" fill="none" xmlns="http://www.w3.org/2000/svg">
<rect x="0.5" y="0.5" width="31" height="31" rx="3.5" fill="#161B22"/>
<rect x="0.5" y="0.5" width="31" height="31" rx="3.5" stroke="#30363D"/>
<path d="M9.25 17.5V16H14.5V17.5H9.25ZM9.25 14.5V13H17.5V14.5H9.25ZM9.25 11.5V10H17.5V11.5H9.25ZM16 22V19.6938L20.1438 15.5687C20.2563 15.4562 20.3813 15.375 20.5188 15.325C20.6562 15.275 20.7937 15.25 20.9312 15.25C21.0812 15.25 21.225 15.2781 21.3625 15.3344C21.5 15.3906 21.625 15.475 21.7375 15.5875L22.4312 16.2812C22.5312 16.3938 22.6094 16.5188 22.6656 16.6562C22.7219 16.7937 22.75 16.9313 22.75 17.0687C22.75 17.2062 22.725 17.3469 22.675 17.4906C22.625 17.6344 22.5437 17.7625 22.4312 17.875L18.3062 22H16ZM21.625 17.0687L20.9312 16.375L21.625 17.0687ZM17.125 20.875H17.8375L20.1062 18.5875L19.7688 18.2312L19.4125 17.8938L17.125 20.1625V20.875ZM19.7688 18.2312L19.4125 17.8938L20.1062 18.5875L19.7688 18.2312Z" fill="#8B949E"/>
</svg>
