<svg width="14" height="14" viewBox="0 0 14 14" fill="none" xmlns="http://www.w3.org/2000/svg">
<path d="M4.86667 13.3333L4.6 11.2C4.45556 11.1444 4.31944 11.0778 4.19167 11C4.06389 10.9222 3.93889 10.8389 3.81667 10.75L1.83333 11.5833L0 8.41667L1.71667 7.11667C1.70556 7.03889 1.7 6.96389 1.7 6.89167C1.7 6.81944 1.7 6.74444 1.7 6.66667C1.7 6.58889 1.7 6.51389 1.7 6.44167C1.7 6.36944 1.70556 6.29444 1.71667 6.21667L0 4.91667L1.83333 1.75L3.81667 2.58333C3.93889 2.49444 4.06667 2.41111 4.2 2.33333C4.33333 2.25556 4.46667 2.18889 4.6 2.13333L4.86667 0H8.53333L8.8 2.13333C8.94444 2.18889 9.08055 2.25556 9.20833 2.33333C9.33611 2.41111 9.46111 2.49444 9.58333 2.58333L11.5667 1.75L13.4 4.91667L11.6833 6.21667C11.6944 6.29444 11.7 6.36944 11.7 6.44167C11.7 6.51389 11.7 6.58889 11.7 6.66667C11.7 6.74444 11.7 6.81944 11.7 6.89167C11.7 6.96389 11.6889 7.03889 11.6667 7.11667L13.3833 8.41667L11.55 11.5833L9.58333 10.75C9.46111 10.8389 9.33333 10.9222 9.2 11C9.06667 11.0778 8.93333 11.1444 8.8 11.2L8.53333 13.3333H4.86667ZM6.03333 12H7.35L7.58333 10.2333C7.92778 10.1444 8.24722 10.0139 8.54167 9.84167C8.83611 9.66944 9.10556 9.46111 9.35 9.21667L11 9.9L11.65 8.76667L10.2167 7.68333C10.2722 7.52778 10.3111 7.36389 10.3333 7.19167C10.3556 7.01944 10.3667 6.84444 10.3667 6.66667C10.3667 6.48889 10.3556 6.31389 10.3333 6.14167C10.3111 5.96944 10.2722 5.80556 10.2167 5.65L11.65 4.56667L11 3.43333L9.35 4.13333C9.10556 3.87778 8.83611 3.66389 8.54167 3.49167C8.24722 3.31944 7.92778 3.18889 7.58333 3.1L7.36667 1.33333H6.05L5.81667 3.1C5.47222 3.18889 5.15278 3.31944 4.85833 3.49167C4.56389 3.66389 4.29444 3.87222 4.05 4.11667L2.4 3.43333L1.75 4.56667L3.18333 5.63333C3.12778 5.8 3.08889 5.96667 3.06667 6.13333C3.04444 6.3 3.03333 6.47778 3.03333 6.66667C3.03333 6.84444 3.04444 7.01667 3.06667 7.18333C3.08889 7.35 3.12778 7.51667 3.18333 7.68333L1.75 8.76667L2.4 9.9L4.05 9.2C4.29444 9.45555 4.56389 9.66944 4.85833 9.84167C5.15278 10.0139 5.47222 10.1444 5.81667 10.2333L6.03333 12ZM6.73333 9C7.37778 9 7.92778 8.77222 8.38333 8.31667C8.83889 7.86111 9.06667 7.31111 9.06667 6.66667C9.06667 6.02222 8.83889 5.47222 8.38333 5.01667C7.92778 4.56111 7.37778 4.33333 6.73333 4.33333C6.07778 4.33333 5.525 4.56111 5.075 5.01667C4.625 5.47222 4.4 6.02222 4.4 6.66667C4.4 7.31111 4.625 7.86111 5.075 8.31667C5.525 8.77222 6.07778 9 6.73333 9Z" fill="#8B949E"/>
</svg>
